<svg xmlns="http://www.w3.org/2000/svg" width="493" height="57" viewBox="0 0 493 57" fill="none"><g clip-path="url(#clip0_252_52)"><path fill-rule="evenodd" clip-rule="evenodd" d="M19.7709 19.481H8.65449C3.89469 19.481 0 23.4213 0 28.2376C0 33.0562 3.89469 36.9965 8.65449 36.9965H14.7135H19.7709V48.2435C19.7709 53.0597 23.6656 57 28.4284 57C33.188 57 37.0825 53.0597 37.0825 48.2435V36.9965H41.8481H28.4284C26.0998 36.9965 23.9772 36.0508 22.4165 34.5225C20.7891 32.9262 19.7709 30.6976 19.7709 28.2376V19.481Z" fill="#13E2AC"></path><path fill-rule="evenodd" clip-rule="evenodd" d="M19.9168 19.481H17.3164V28.2544C17.3164 31.3563 18.5544 34.3031 20.7348 36.4574C22.8268 38.5248 25.6041 39.6835 28.517 39.6835H37.1139V37.0301H41.848H28.517C26.2038 37.0301 24.0953 36.0826 22.5449 34.5514C20.9283 32.952 19.9168 30.7191 19.9168 28.2544V19.481Z" fill="white"></path><path fill-rule="evenodd" clip-rule="evenodd" d="M37.3803 20.0049V8.75886C37.3803 3.94061 33.516 0 28.7933 0C24.0676 0 20.2031 3.94061 20.2031 8.75886V28.7607C20.2031 31.2206 21.2134 33.449 22.8282 35.0452C24.3768 36.5733 26.4828 37.519 28.7933 37.519H48.4107C53.1364 37.519 57.0006 33.579 57.0006 28.7607C57.0006 23.9449 53.1364 20.0049 48.4107 20.0049H37.3803Z" fill="#705CFE"></path><path d="M109.531 34.3125C109.531 38 108.812 41.0625 107.375 43.5C105.938 45.9167 104.104 47.6979 101.875 48.8438C99.6459 49.9896 97.3751 50.5625 95.0626 50.5625C93.3959 50.5625 91.948 50.375 90.7189 50C89.5105 49.6042 88.5626 49.1875 87.8751 48.75C87.2084 48.2917 86.5105 47.75 85.7812 47.125V50H74.5312V6.6875H85.7812V20.0625C86.6147 19.4167 87.7605 18.8542 89.2189 18.375C90.6772 17.875 92.3647 17.625 94.2812 17.625C96.8438 17.625 99.1042 18.0938 101.062 19.0312C103.021 19.9479 104.615 21.1979 105.844 22.7812C107.094 24.3646 108.021 26.1458 108.625 28.125C109.229 30.0833 109.531 32.1458 109.531 34.3125ZM97.6876 34.0625C97.6876 31.3333 97.073 29.2604 95.8439 27.8438C94.6147 26.4062 93.1563 25.6875 91.4689 25.6875C89.7813 25.6875 87.8854 26.3646 85.7812 27.7188V39.875C87.3647 41.375 89.2605 42.125 91.4689 42.125C92.8647 42.125 94.2501 41.5625 95.6251 40.4375C97.0001 39.2917 97.6876 37.1667 97.6876 34.0625Z" fill="white"></path><path d="M148.032 36.8125H125.626C126.063 38.75 127.135 40.3333 128.844 41.5625C130.552 42.7917 132.491 43.4062 134.657 43.4062C138.449 43.4062 142.635 42.3438 147.219 40.2188V47.1875C145.573 48.0417 143.573 48.8229 141.219 49.5312C138.885 50.2188 135.907 50.5625 132.282 50.5625C128.366 50.5625 125.032 49.8333 122.282 48.375C119.532 46.9167 117.47 44.9375 116.095 42.4375C114.741 39.9375 114.062 37.1042 114.062 33.9375C114.062 30.8125 114.741 28.0208 116.095 25.5625C117.47 23.0833 119.532 21.1458 122.282 19.75C125.032 18.3333 128.366 17.625 132.282 17.625C134.866 17.625 137.355 18.1875 139.751 19.3125C142.168 20.4167 144.147 22.2396 145.689 24.7812C147.251 27.3021 148.032 30.5625 148.032 34.5625V36.8125ZM137.469 31.25C137.469 29.2083 136.959 27.5833 135.939 26.375C134.939 25.1458 133.49 24.5312 131.594 24.5312C129.719 24.5312 128.199 25.1562 127.032 26.4062C125.886 27.6354 125.312 29.25 125.312 31.25H137.469Z" fill="white"></path><path d="M187.562 50H176.312V32.8438C176.312 31.0938 176.021 29.5729 175.438 28.2812C174.875 26.9688 173.625 26.3125 171.688 26.3125C170.771 26.3125 169.958 26.4896 169.25 26.8438C168.562 27.1771 167.938 27.6146 167.375 28.1562C166.833 28.6979 166.375 29.2188 166 29.7188C165.625 30.2188 165.24 30.75 164.844 31.3125V50H153.594V18.1875H164.844V22.75C166.615 20.8542 168.385 19.5312 170.156 18.7812C171.948 18.0104 173.938 17.625 176.125 17.625C183.75 17.625 187.562 22.1875 187.562 31.3125V50Z" fill="white"></path><path d="M224.594 19.2188L209.375 41.6875H224.281V50H191.656V48.9688L206.875 26.5H192.938V18.1875H224.594V19.2188Z" fill="white"></path><path d="M263.844 34.0625C263.844 37.2292 263.156 40.0521 261.781 42.5312C260.406 45.0104 258.344 46.9688 255.594 48.4062C252.865 49.8438 249.531 50.5625 245.594 50.5625C241.656 50.5625 238.312 49.8438 235.562 48.4062C232.833 46.9688 230.781 45.0104 229.406 42.5312C228.052 40.0521 227.375 37.2292 227.375 34.0625C227.375 31.6667 227.75 29.4896 228.5 27.5312C229.271 25.5729 230.427 23.8438 231.969 22.3438C233.531 20.8229 235.448 19.6562 237.719 18.8438C239.99 18.0312 242.615 17.625 245.594 17.625C248.594 17.625 251.24 18.0417 253.531 18.875C255.844 19.6875 257.75 20.8333 259.25 22.3125C260.771 23.7917 261.917 25.5208 262.688 27.5C263.458 29.4792 263.844 31.6667 263.844 34.0625ZM252 34.0625C252 31.5417 251.448 29.5729 250.344 28.1562C249.26 26.7188 247.677 26 245.594 26C243.531 26 241.948 26.7188 240.844 28.1562C239.76 29.5729 239.219 31.5417 239.219 34.0625C239.219 36.5625 239.771 38.5417 240.875 40C241.979 41.4583 243.552 42.1875 245.594 42.1875C247.677 42.1875 249.26 41.4688 250.344 40.0312C251.448 38.5729 252 36.5833 252 34.0625Z" fill="white"></path><path d="M269.906 6.34375H275.594V23.3125C278.052 21.5208 280.677 20.625 283.469 20.625C287.115 20.625 290.094 22 292.406 24.75C294.719 27.5 295.875 31.0312 295.875 35.3438C295.875 39.9688 294.49 43.6562 291.719 46.4062C288.969 49.1354 285.281 50.5 280.656 50.5C278.802 50.5 276.844 50.3021 274.781 49.9062C272.74 49.5104 271.115 49.0104 269.906 48.4062V6.34375ZM275.594 28.75V44.3125C277.531 44.8958 279.521 45.1875 281.562 45.1875C284.083 45.1875 286.135 44.2917 287.719 42.5C289.323 40.7083 290.125 38.4062 290.125 35.5938C290.125 32.7396 289.375 30.4167 287.875 28.625C286.396 26.8333 284.458 25.9375 282.062 25.9375C279.938 25.9375 277.781 26.875 275.594 28.75Z" fill="white"></path><path d="M326.656 36.125H306.438C306.583 38.875 307.5 41.0625 309.188 42.6875C310.896 44.3125 313.094 45.125 315.781 45.125C319.531 45.125 322.99 43.9583 326.156 41.625V47.1875C324.406 48.3542 322.667 49.1875 320.938 49.6875C319.229 50.1875 317.219 50.4375 314.906 50.4375C311.74 50.4375 309.177 49.7812 307.219 48.4688C305.26 47.1562 303.688 45.3958 302.5 43.1875C301.333 40.9583 300.75 38.3854 300.75 35.4688C300.75 31.0938 301.99 27.5417 304.469 24.8125C306.948 22.0625 310.167 20.6875 314.125 20.6875C317.938 20.6875 320.979 22.0208 323.25 24.6875C325.521 27.3542 326.656 30.9271 326.656 35.4062V36.125ZM306.562 32.7188H321.031C320.885 30.4479 320.208 28.6979 319 27.4688C317.792 26.2396 316.167 25.625 314.125 25.625C312.083 25.625 310.406 26.2396 309.094 27.4688C307.802 28.6979 306.958 30.4479 306.562 32.7188Z" fill="white"></path><path d="M331.438 47.9375V41.8125C333.041 42.9375 334.677 43.8542 336.344 44.5625C338.031 45.25 339.448 45.5938 340.594 45.5938C341.781 45.5938 342.802 45.3021 343.656 44.7188C344.51 44.1354 344.938 43.4375 344.938 42.625C344.938 41.7917 344.656 41.1042 344.094 40.5625C343.552 40 342.365 39.1979 340.531 38.1562C336.865 36.1146 334.458 34.375 333.312 32.9375C332.188 31.4792 331.625 29.8958 331.625 28.1875C331.625 25.9792 332.479 24.1771 334.188 22.7812C335.916 21.3854 338.135 20.6875 340.844 20.6875C343.656 20.6875 346.542 21.4792 349.5 23.0625V28.6875C346.125 26.6458 343.365 25.625 341.219 25.625C340.115 25.625 339.219 25.8646 338.531 26.3438C337.865 26.8021 337.531 27.4167 337.531 28.1875C337.531 28.8542 337.832 29.4896 338.438 30.0938C339.062 30.6979 340.145 31.4271 341.688 32.2812L343.719 33.4375C348.51 36.1458 350.906 39.1458 350.906 42.4375C350.906 44.7917 349.979 46.7292 348.125 48.25C346.292 49.75 343.927 50.5 341.031 50.5C339.323 50.5 337.802 50.3229 336.469 49.9688C335.135 49.5938 333.457 48.9167 331.438 47.9375Z" fill="white"></path><path d="M353.438 25.8125L364.125 15.3125V21.25H373.219V26.375H364.125V40.4688C364.125 43.7604 365.49 45.4062 368.219 45.4062C370.26 45.4062 372.417 44.7188 374.688 43.3438V48.6562C372.5 49.8854 370.115 50.5 367.531 50.5C364.927 50.5 362.76 49.7396 361.031 48.2188C360.49 47.7604 360.042 47.25 359.688 46.6875C359.333 46.1042 359.031 45.3542 358.781 44.4375C358.552 43.5 358.438 41.7292 358.438 39.125V26.375H353.438V25.8125Z" fill="white"></path><path d="M403.281 36.125H383.062C383.208 38.875 384.125 41.0625 385.812 42.6875C387.521 44.3125 389.719 45.125 392.406 45.125C396.156 45.125 399.615 43.9583 402.781 41.625V47.1875C401.031 48.3542 399.292 49.1875 397.562 49.6875C395.854 50.1875 393.844 50.4375 391.531 50.4375C388.365 50.4375 385.802 49.7812 383.844 48.4688C381.885 47.1562 380.312 45.3958 379.125 43.1875C377.958 40.9583 377.375 38.3854 377.375 35.4688C377.375 31.0938 378.615 27.5417 381.094 24.8125C383.573 22.0625 386.792 20.6875 390.75 20.6875C394.562 20.6875 397.604 22.0208 399.875 24.6875C402.146 27.3542 403.281 30.9271 403.281 35.4062V36.125ZM383.188 32.7188H397.656C397.51 30.4479 396.833 28.6979 395.625 27.4688C394.417 26.2396 392.792 25.625 390.75 25.625C388.708 25.625 387.031 26.2396 385.719 27.4688C384.427 28.6979 383.583 30.4479 383.188 32.7188Z" fill="white"></path><path d="M409.594 6.34375H415.281V50H409.594V6.34375Z" fill="white"></path><path d="M423.656 6.34375H429.344V50H423.656V6.34375Z" fill="white"></path><path d="M462.094 36.125H441.875C442.021 38.875 442.938 41.0625 444.625 42.6875C446.333 44.3125 448.531 45.125 451.219 45.125C454.969 45.125 458.427 43.9583 461.594 41.625V47.1875C459.844 48.3542 458.104 49.1875 456.375 49.6875C454.667 50.1875 452.656 50.4375 450.344 50.4375C447.177 50.4375 444.615 49.7812 442.656 48.4688C440.698 47.1562 439.125 45.3958 437.938 43.1875C436.77 40.9583 436.188 38.3854 436.188 35.4688C436.188 31.0938 437.427 27.5417 439.906 24.8125C442.385 22.0625 445.604 20.6875 449.562 20.6875C453.375 20.6875 456.417 22.0208 458.688 24.6875C460.957 27.3542 462.094 30.9271 462.094 35.4062V36.125ZM442 32.7188H456.469C456.323 30.4479 455.645 28.6979 454.438 27.4688C453.229 26.2396 451.604 25.625 449.562 25.625C447.521 25.625 445.844 26.2396 444.531 27.4688C443.24 28.6979 442.396 30.4479 442 32.7188Z" fill="white"></path><path d="M473.969 21.25V24.9062C476.51 22.0938 479.396 20.6875 482.625 20.6875C484.417 20.6875 486.083 21.1562 487.625 22.0938C489.167 23.0104 490.333 24.2812 491.125 25.9062C491.938 27.5104 492.344 30.0625 492.344 33.5625V50H486.656V33.625C486.656 30.6875 486.208 28.5938 485.312 27.3438C484.417 26.0729 482.917 25.4375 480.812 25.4375C478.125 25.4375 475.844 26.7812 473.969 29.4688V50H468.156V21.25H473.969Z" fill="white"></path></g><defs><clipPath id="clip0_252_52"><rect width="493" height="57" fill="white"></rect></clipPath></defs></svg>